<?xml version="1.0" encoding="UTF-8" standalone="no"?>
<svg enable-background="new -0.258 -0.548 123.547 123.539" viewBox="-0.258 -0.548 123.547 123.539" xml:space="preserve" xmlns="http://www.w3.org/2000/svg"><defs></defs>
<path d="m14.56127,1.46297c-6.7885,0-12.30965,5.5337-12.30965,12.3222v94.37401c0,6.78851 5.52115,12.32221 12.30965,12.32221h94.38656c6.77596,0 12.28456-5.5337 12.28456-12.32221v-94.37401c0-6.7885-5.5086-12.3222-12.28456-12.3222h-94.38656z" fill="#fff"></path><path d="m108.94783,122.991c8.18134,0 14.79417-6.63793 14.79417-14.83182v-94.37401c0-8.19389-6.61283-14.83182-14.79417-14.83182h-94.38656c-8.18134,0-14.81927,6.63793-14.81927,14.83182v94.37401c0,8.19389 6.63793,14.83182 14.81927,14.83182h94.38656z" fill="#231f20"></path><path d="m48.19009,98.99909h25.40984l-.0251-25.39729h25.44748v-25.43493h-25.44748l.0251-25.38474h-25.40984l.0251,25.38474h-25.44748v25.43493h25.44748l-.0251,25.39729z" fill="#fff"></path></svg>
